# xmcd CD database file
#
# Track frame offsets:
#	150
#	30446
#	70241
#	102935
#	133283
#	180502
#	212171
#	245368
#	264539
#
# Disc length: 3861 seconds
#
# Revision: 1
# Processed by: cddbd v1.5.1PL0 Copyright (c) Steve Scherf et al.
# Submitted via: CDex 1.51
#
DISCID=7e0f1309
DTITLE=Harrison, Joel - Transience
DYEAR=2001
DGENRE=Jazz
TTITLE0=Living Arts
TTITLE1=Transience
TTITLE2=Cry Lazarus
TTITLE3=I Don't Live Today
TTITLE4=The Bearclaw
TTITLE5=Chant for Jimp Pepper
TTITLE6=Simian Technology
TTITLE7=The Hawk
TTITLE8=Question of Faith
EXTD=YEAR: 2001
EXTT0=
EXTT1=
EXTT2=
EXTT3=
EXTT4=
EXTT5=
EXTT6=
EXTT7=
EXTT8=
PLAYORDER=
